<svg xmlns="http://www.w3.org/2000/svg" xmlns:xlink="http://www.w3.org/1999/xlink" width="500" zoomAndPan="magnify" viewBox="0 0 375 374.999991" height="500" preserveAspectRatio="xMidYMid meet" version="1.2"><defs><clipPath id="185789f3f7"><path d="M 77.078125 61.429688 L 297.921875 61.429688 L 297.921875 282.273438 L 77.078125 282.273438 Z M 77.078125 61.429688 "/></clipPath><clipPath id="e57358c2c1"><path d="M 187.5 61.429688 C 126.515625 61.429688 77.078125 110.867188 77.078125 171.851562 C 77.078125 232.835938 126.515625 282.273438 187.5 282.273438 C 248.484375 282.273438 297.921875 232.835938 297.921875 171.851562 C 297.921875 110.867188 248.484375 61.429688 187.5 61.429688 Z M 187.5 61.429688 "/></clipPath><clipPath id="ffa9b9cf73"><path d="M 108 106 L 277 106 L 277 255.371094 L 108 255.371094 Z M 108 106 "/></clipPath><clipPath id="b0b03b1d7c"><path d="M 112 106 L 269 106 L 269 255.371094 L 112 255.371094 Z M 112 106 "/></clipPath><clipPath id="fd3ef3f7b5"><path d="M 108 107 L 277 107 L 277 255.371094 L 108 255.371094 Z M 108 107 "/></clipPath><filter x="0%" y="0%" width="100%" filterUnits="objectBoundingBox" id="301147774b" height="100%"><feColorMatrix values="0 0 0 0 1 0 0 0 0 1 0 0 0 0 1 0 0 0 1 0" type="matrix" in="SourceGraphic"/></filter><clipPath id="bc0b001194"><path d="M 0.238281 0.0390625 L 168.71875 0.0390625 L 168.71875 148.371094 L 0.238281 148.371094 Z M 0.238281 0.0390625 "/></clipPath><clipPath id="f0a13ddd97"><rect x="0" width="169" y="0" height="149"/></clipPath><clipPath id="601a84ed14"><path d="M 108 106 L 278 106 L 278 255.371094 L 108 255.371094 Z M 108 106 "/></clipPath><clipPath id="9ac0e6a71d"><path d="M 85 104 L 279 104 L 279 255.371094 L 85 255.371094 Z M 85 104 "/></clipPath></defs><g id="d95622ba86"><rect x="0" width="375" y="0" height="374.999991" style="fill:#ffffff;fill-opacity:1;stroke:none;"/><rect x="0" width="375" y="0" height="374.999991" style="fill:#eab000;fill-opacity:1;stroke:none;"/><g clip-rule="nonzero" clip-path="url(#185789f3f7)"><g clip-rule="nonzero" clip-path="url(#e57358c2c1)"><path style=" stroke:none;fill-rule:nonzero;fill:#b82200;fill-opacity:1;" d="M 77.078125 61.429688 L 297.921875 61.429688 L 297.921875 282.273438 L 77.078125 282.273438 Z M 77.078125 61.429688 "/></g></g><g clip-rule="nonzero" clip-path="url(#ffa9b9cf73)"><path style=" stroke:none;fill-rule:nonzero;fill:#ffffff;fill-opacity:1;" d="M 123.855469 255.261719 C 123.855469 255.261719 122.90625 255.261719 121.757812 248.96875 C 120.335938 241.09375 123.539062 226.53125 124.015625 225.382812 C 120.730469 222.890625 107.910156 210.941406 108.542969 194.398438 C 109.175781 177.859375 121.5625 161.160156 121.5625 161.160156 C 121.5625 161.160156 123.421875 126.058594 142.019531 106.15625 C 148.785156 106.828125 167.898438 123.289062 171.382812 126.375 C 180.167969 123.683594 205.253906 124.042969 214.554688 126.296875 C 214.554688 126.296875 227.257812 111.734375 244.828125 106.984375 C 247.796875 108.054688 267.777344 141.53125 264.058594 161.515625 C 270.035156 166.976562 290.492188 198 262.398438 226.886719 C 267.777344 241.964844 264.375 255.300781 264.375 255.300781 Z M 123.855469 255.261719 C 123.855469 255.261719 121.757812 254.191406 121.207031 250.394531 C 119.980469 242.042969 123.460938 226.847656 124.015625 225.425781 C 120.730469 222.929688 107.910156 210.980469 108.542969 194.4375 C 109.175781 177.898438 121.5625 161.199219 121.5625 161.199219 C 121.5625 161.199219 122.628906 126.890625 141.230469 106.984375 C 147.996094 107.660156 167.898438 123.328125 171.382812 126.414062 C 180.167969 123.726562 205.253906 124.082031 214.554688 126.335938 C 214.554688 126.335938 226.1875 111.773438 243.71875 107.027344 C 246.6875 108.09375 267.738281 141.570312 264.019531 161.554688 C 269.996094 167.015625 290.453125 198.039062 262.359375 226.925781 C 267.738281 242.003906 263.980469 255.339844 263.980469 255.339844 L 123.855469 255.339844 Z M 123.855469 255.261719 "/></g><g clip-rule="nonzero" clip-path="url(#b0b03b1d7c)"><path style=" stroke:none;fill-rule:nonzero;fill:#e36f55;fill-opacity:1;" d="M 183.175781 125.070312 C 183.175781 125.070312 206.402344 150.910156 176.25 174.734375 C 146.097656 198.554688 107.871094 186.523438 113.054688 176.277344 C 113.054688 176.277344 118.078125 163.535156 122.789062 160.566406 C 119.898438 152.929688 126.707031 131.597656 132.917969 118.976562 C 132.917969 118.976562 139.171875 107.027344 142.019531 106.195312 C 144.871094 105.363281 163.269531 118.183594 170.710938 124.992188 C 175.457031 125.585938 183.175781 125.070312 183.175781 125.070312 Z M 251.4375 255.261719 C 251.4375 255.261719 262.59375 252.253906 268.175781 241.925781 C 261.566406 225.621094 254.402344 203.304688 248.308594 199.109375 C 242.214844 194.914062 240.554688 198.476562 238.0625 202.234375 C 235.765625 198 229.039062 194.757812 226.941406 202.234375 C 224.328125 198.714844 216.453125 198.199219 216.769531 210.902344 C 217.128906 223.605469 224.011719 255.261719 224.011719 255.261719 Z M 251.4375 255.261719 "/></g><g clip-rule="nonzero" clip-path="url(#fd3ef3f7b5)"><g mask="url(#3ebd0ff0f5)" transform="matrix(1,0,0,1,108,107)"><g clip-path="url(#f0a13ddd97)"><g clip-rule="nonzero" clip-path="url(#bc0b001194)"><path style=" stroke:none;fill-rule:nonzero;fill:#ef5454;fill-opacity:1;" d="M 32.753906 32.910156 C 32.753906 32.910156 27.054688 41.65625 22.425781 49.570312 C 22.308594 22.382812 35.761719 10.550781 35.761719 10.550781 C 32.320312 17.910156 32.753906 32.910156 32.753906 32.910156 Z M 137.105469 32.910156 C 137.105469 32.910156 142.25 41.65625 146.917969 49.570312 C 147.035156 22.382812 133.582031 10.550781 133.582031 10.550781 C 137.023438 17.910156 137.105469 32.910156 137.105469 32.910156 Z M 22.425781 103.585938 C 0.265625 86.371094 8.933594 62.351562 8.933594 62.351562 C -3.257812 75.449219 -2.109375 103.109375 12.097656 117 C 13.125 117.988281 14.234375 118.9375 15.460938 119.808594 C 17.558594 114.742188 20.445312 108.136719 22.425781 103.585938 Z M 58.238281 124.835938 L 57.011719 132.628906 C 64.6875 133.304688 71.414062 133.144531 75.570312 132.234375 C 71.8125 130.53125 65.675781 128.238281 58.238281 124.835938 Z M 112.453125 124.082031 C 104.261719 127.882812 97.492188 130.414062 93.457031 132.234375 C 97.808594 133.183594 104.972656 133.34375 113.046875 132.550781 Z M 160.136719 62.351562 C 160.136719 62.351562 168.683594 86.054688 147.035156 103.226562 C 148.855469 107.660156 151.90625 114.941406 154.042969 119.453125 C 155.070312 118.660156 156.058594 117.832031 156.929688 117 C 171.175781 103.109375 172.324219 75.449219 160.136719 62.351562 Z M 135.363281 92.148438 C 135.363281 92.148438 141.972656 99.585938 144.03125 119.847656 C 146.085938 140.109375 139.082031 148.261719 139.082031 148.261719 L 160.136719 148.261719 C 160.136719 148.261719 162.628906 144.027344 160.53125 137.617188 C 158.472656 131.207031 145.492188 95.945312 139.042969 92.109375 C 132.632812 88.269531 135.363281 92.148438 135.363281 92.148438 Z M 29.785156 92.070312 C 23.335938 95.90625 10.355469 131.207031 8.296875 137.578125 C 6.242188 143.988281 8.695312 148.222656 8.695312 148.222656 L 29.746094 148.222656 C 29.746094 148.222656 22.703125 140.03125 24.800781 119.808594 C 26.859375 99.546875 33.464844 92.109375 33.464844 92.109375 C 33.464844 92.109375 36.234375 88.269531 29.785156 92.070312 Z M 92.824219 105.285156 C 92.824219 105.285156 87.246094 108.214844 79.210938 105.285156 C 83.089844 112.882812 90.527344 111.339844 92.824219 105.285156 Z M 115.894531 21.910156 C 115.894531 21.910156 127.171875 6.554688 136.472656 1.332031 C 136.828125 -0.015625 131.839844 -1.121094 123.808594 5.089844 C 115.773438 11.304688 106.554688 19.335938 106.554688 19.335938 Z M 63.460938 19.335938 C 63.460938 19.335938 54.242188 11.304688 46.207031 5.089844 C 38.175781 -1.121094 33.1875 -0.015625 33.546875 1.332031 C 42.84375 6.554688 54.121094 21.910156 54.121094 21.910156 Z M 63.460938 19.335938 "/></g></g><mask id="3ebd0ff0f5"><g filter="url(#301147774b)"><rect x="0" width="375" y="0" height="374.999991" style="fill:#000000;fill-opacity:0.3;stroke:none;"/></g></mask></g></g><g clip-rule="nonzero" clip-path="url(#601a84ed14)"><path style=" stroke:none;fill-rule:nonzero;fill:#ffffff;fill-opacity:1;" d="M 141.1875 106.984375 C 141.1875 106.984375 126.945312 133.417969 127.933594 162.664062 C 119.464844 169.390625 115.03125 176.277344 110.519531 187.832031 C 110.363281 180.828125 114.558594 172.832031 121.523438 161.199219 C 122.589844 146.320312 131.453125 116.007812 141.1875 106.984375 Z M 121.878906 225.226562 C 121.878906 225.226562 123.34375 225.382812 124.488281 220.121094 C 110.164062 205.757812 110.285156 188.542969 110.285156 188.542969 C 102.804688 205.003906 121.878906 225.226562 121.878906 225.226562 Z M 118.910156 255.261719 C 119.898438 255.261719 122.117188 255.261719 123.855469 255.261719 C 117.960938 247.902344 124.488281 229.777344 124.488281 229.777344 C 113.210938 244.617188 116.21875 255.261719 118.910156 255.261719 Z M 261.644531 229.777344 C 261.644531 229.777344 268.136719 247.902344 262.277344 255.261719 C 264.296875 255.261719 265.917969 255.261719 266.949219 255.261719 C 268.925781 254.628906 269.242188 254.546875 269.242188 254.546875 C 269.242188 254.546875 272.921875 244.617188 261.644531 229.777344 Z M 275.417969 188.582031 C 275.417969 188.582031 275.535156 205.796875 261.210938 220.160156 C 262.359375 225.425781 264.097656 226.96875 264.097656 226.96875 C 264.097656 226.96875 282.894531 205.003906 275.417969 188.582031 Z M 275.417969 188.582031 "/></g><g clip-rule="nonzero" clip-path="url(#9ac0e6a71d)"><path style=" stroke:none;fill-rule:nonzero;fill:#2b0806;fill-opacity:1;" d="M 232.996094 152.375 C 227.535156 152.652344 210.003906 159.101562 210.082031 161.121094 C 210.242188 164.839844 222.984375 169.707031 232.007812 173.425781 C 241.027344 177.148438 239.167969 172.121094 234.460938 169.113281 C 236.160156 170.101562 239.523438 169.46875 236.953125 167.09375 C 235.171875 165.472656 224.289062 161.082031 224.289062 161.082031 C 224.289062 161.082031 230.144531 159.65625 234.300781 158.507812 C 238.21875 157.441406 237.546875 155.738281 233.785156 155.9375 C 235.605469 155.382812 237.746094 152.136719 232.996094 152.375 Z M 206.640625 169.3125 C 205.453125 171.765625 202.84375 173.863281 200.269531 172.871094 C 197.699219 171.882812 195.878906 167.726562 192.949219 167.726562 C 190.019531 167.726562 188.238281 171.882812 185.628906 172.871094 C 183.054688 173.863281 180.445312 171.765625 179.257812 169.3125 C 175.65625 171.25 169.679688 176.433594 170.078125 186.800781 C 170.472656 197.167969 177.753906 205.320312 192.949219 205.320312 C 208.105469 205.320312 215.425781 197.128906 215.820312 186.800781 C 216.175781 176.433594 210.203125 171.25 206.640625 169.3125 Z M 153.890625 173.425781 C 162.914062 169.707031 175.65625 164.839844 175.816406 161.121094 C 175.894531 159.101562 158.324219 152.652344 152.902344 152.375 C 148.152344 152.136719 150.289062 155.382812 152.152344 155.976562 C 148.390625 155.738281 147.71875 157.480469 151.636719 158.546875 C 155.792969 159.695312 161.648438 161.121094 161.648438 161.121094 C 161.648438 161.121094 150.765625 165.511719 148.984375 167.136719 C 146.414062 169.507812 149.777344 170.140625 151.476562 169.152344 C 146.730469 172.121094 144.871094 177.144531 153.890625 173.425781 Z M 241.621094 117.511719 C 241.621094 117.511719 245.023438 131.757812 243.164062 143.472656 C 245.933594 144.65625 254.917969 156.570312 254.917969 156.570312 C 254.917969 156.570312 253.375 148.574219 247.003906 141.769531 C 248.429688 134.011719 245.933594 121.546875 241.621094 117.511719 Z M 264.097656 226.925781 C 290.890625 200.808594 274.230469 172.199219 265.957031 161.4375 C 265.046875 126.375 247.992188 103.898438 243.679688 104.414062 C 229.078125 108.332031 214.992188 122.65625 212.972656 124.792969 C 204.542969 122.578125 196.789062 122.339844 192.949219 122.417969 C 189.109375 122.378906 181.355469 122.578125 172.925781 124.792969 C 170.867188 122.65625 156.820312 108.332031 142.21875 104.414062 C 137.867188 103.898438 120.847656 126.375 119.9375 161.4375 C 111.707031 172.160156 95.046875 200.769531 121.800781 226.925781 L 121.757812 227.046875 C 119.820312 231.714844 117.882812 236.542969 116.101562 241.171875 C 115.46875 242.875 113.015625 249.917969 113.726562 255.261719 C 114.992188 255.261719 118.792969 255.261719 118.949219 255.261719 C 117.207031 253.402344 118.910156 245.683594 119.742188 243.230469 C 122.710938 234.40625 126.984375 222.890625 130.03125 215.964844 C 135.410156 203.660156 139.765625 198.355469 143.917969 199.1875 C 146.570312 199.703125 148.195312 205.003906 148.195312 205.003906 C 148.195312 205.003906 151.320312 199.148438 154.960938 199.742188 C 157.886719 200.214844 157.730469 203.382812 157.570312 206.351562 C 159.90625 201.007812 166.121094 199.582031 167.304688 206.707031 C 168.097656 211.535156 160.578125 248.929688 159.90625 255.261719 C 159.90625 255.261719 162.675781 255.261719 164.378906 255.261719 C 164.773438 251.226562 168.019531 229.976562 169.167969 221.546875 C 170.394531 212.445312 171.222656 207.972656 169.761719 203.9375 C 166.792969 195.785156 160.617188 198.199219 159.390625 200.691406 C 160.105469 194.875 152.308594 193.925781 148.867188 199.820312 C 147.085938 192.976562 139.25 192.261719 132.640625 203.777344 C 130.109375 208.210938 126.785156 215.332031 123.382812 223.328125 C 117.328125 217.550781 96.949219 194.480469 123.421875 161.949219 C 123.421875 153.679688 127.378906 126.929688 141.507812 108.332031 C 143.878906 107.144531 156.425781 114.226562 169.207031 125.980469 C 166.832031 126.773438 164.417969 127.722656 162.082031 128.910156 C 162.953125 129.9375 174.863281 126.097656 192.988281 126.097656 C 211.113281 126.097656 223.023438 129.9375 223.894531 128.910156 C 221.558594 127.722656 219.144531 126.773438 216.769531 125.980469 C 229.554688 114.226562 242.136719 107.144531 244.472656 108.332031 C 258.597656 126.929688 262.554688 153.71875 262.554688 161.949219 C 289.027344 194.480469 268.648438 217.550781 262.59375 223.328125 C 259.191406 215.371094 255.867188 208.210938 253.335938 203.777344 C 246.726562 192.300781 238.890625 193.015625 237.109375 199.820312 C 233.667969 193.925781 225.871094 194.875 226.585938 200.691406 C 225.320312 198.238281 219.183594 195.785156 216.21875 203.9375 C 214.753906 207.972656 215.542969 212.445312 216.8125 221.546875 C 217.957031 229.976562 221.203125 251.226562 221.597656 255.261719 C 223.261719 255.261719 226.070312 255.261719 226.070312 255.261719 C 225.4375 248.929688 217.878906 211.574219 218.671875 206.707031 C 219.859375 199.542969 226.03125 200.96875 228.40625 206.351562 C 228.207031 203.382812 228.050781 200.214844 231.015625 199.742188 C 234.65625 199.148438 237.785156 205.003906 237.785156 205.003906 C 237.785156 205.003906 239.40625 199.703125 242.058594 199.1875 C 246.210938 198.355469 250.527344 203.660156 255.945312 215.964844 C 258.996094 222.890625 263.269531 234.40625 266.234375 243.230469 C 267.066406 245.683594 268.769531 253.402344 267.027344 255.261719 C 267.183594 255.261719 270.984375 255.261719 272.25 255.261719 C 272.964844 249.917969 270.507812 242.875 269.875 241.171875 C 268.015625 236.503906 266.039062 231.636719 264.097656 226.925781 Z M 115.070312 145.765625 C 109.847656 141.253906 104.664062 136.742188 99.480469 132.234375 C 98.253906 131.164062 94.8125 132.984375 96.472656 134.410156 C 101.65625 138.921875 106.839844 143.429688 112.023438 147.941406 C 113.292969 149.011719 116.695312 147.191406 115.070312 145.765625 Z M 109.691406 152.375 C 102.527344 150.078125 95.367188 147.824219 88.203125 145.527344 C 86.539062 145.015625 83.613281 147.386719 85.945312 148.140625 C 93.109375 150.4375 100.273438 152.691406 107.433594 154.988281 C 109.097656 155.5 112.023438 153.085938 109.691406 152.375 Z M 107.988281 160.644531 C 103.160156 161.910156 98.371094 163.21875 93.546875 164.484375 C 91.171875 165.117188 91.765625 167.371094 94.136719 166.738281 C 98.964844 165.472656 103.753906 164.167969 108.582031 162.902344 C 110.957031 162.265625 110.363281 160.011719 107.988281 160.644531 Z M 138.300781 141.769531 C 131.96875 148.574219 130.386719 156.570312 130.386719 156.570312 C 130.386719 156.570312 139.367188 144.65625 142.140625 143.472656 C 140.277344 131.757812 143.683594 117.511719 143.683594 117.511719 C 139.410156 121.546875 136.914062 134.011719 138.300781 141.769531 Z M 138.300781 141.769531 "/></g><path style=" stroke:none;fill-rule:nonzero;fill:#ef5454;fill-opacity:1;" d="M 212.496094 182.210938 C 212.65625 183.320312 212.734375 184.507812 212.65625 185.8125 C 212.300781 194.992188 205.847656 202.234375 192.394531 202.234375 C 186.65625 202.234375 182.226562 200.929688 178.980469 198.714844 C 189.386719 181.816406 207.667969 181.855469 212.496094 182.210938 Z M 212.496094 182.210938 C 212.65625 183.320312 212.734375 184.507812 212.65625 185.8125 C 212.300781 194.992188 205.847656 202.234375 192.394531 202.234375 C 186.65625 202.234375 182.226562 200.929688 178.980469 198.714844 C 189.386719 181.816406 207.667969 181.855469 212.496094 182.210938 Z M 212.496094 182.210938 "/><g style="fill:#b82200;fill-opacity:1;"><g transform="translate(64.775999, 238.105973)"><path style="stroke:none" d="M 47.863281 -5.230469 L 47.335938 0.0976562 L 22.101562 22.128906 L 13.957031 24.1875 L -2.734375 5.71875 L -4.328125 -2.390625 L 22.570312 -26.710938 L 29.957031 -27.894531 L 48.113281 -7.777344 Z M 36.339844 -6.367188 L 42.101562 -5.800781 L 37.804688 -1.921875 L 23.46875 -17.800781 L 27.765625 -21.679688 L 28.683594 -15.964844 L 26.097656 -15.550781 L 25.183594 -21.265625 L 29.066406 -16.972656 L 5.867188 4.003906 L 1.984375 -0.292969 L 7.664062 -1.410156 L 8.316406 1.90625 L 2.636719 3.027344 L 6.933594 -0.855469 L 20.210938 13.839844 L 15.914062 17.722656 L 14.496094 12.109375 L 17.917969 11.242188 L 19.339844 16.855469 L 15.53125 12.492188 L 37.992188 -7.117188 L 41.800781 -2.753906 L 36.039062 -3.320312 Z M 31.46875 -6.707031 L 16.433594 7.050781 L 12.523438 2.78125 L 17.09375 -0.777344 L 20.757812 3.933594 L 16.191406 7.488281 L 12.355469 3.152344 L 27.527344 -10.253906 L 31.359375 -5.914062 L 26.734375 -2.4375 L 22.929688 -7.5 L 27.558594 -10.976562 Z M 28.355469 -19.554688 L 39.203125 -5.117188 L 15.40625 15.90625 L 4.671875 2.117188 L 23.652344 -15.246094 Z M 28.355469 -19.554688 "/></g></g><g style="fill:#b82200;fill-opacity:1;"><g transform="translate(85.195364, 260.469115)"><path style="stroke:none" d="M 22.195312 11.585938 L 20.203125 10.417969 L 23.132812 5.421875 L 28.816406 6.515625 L 26.953125 16.222656 L 20.53125 19.421875 L 7.4375 14.027344 L 9.558594 -0.539062 L 15.289062 0.296875 L 12 5.058594 L 10.21875 3.832031 L 13.507812 -0.933594 L 17.953125 2.773438 L 9.597656 12.804688 L -7.625 1.972656 L 21.042969 -36.136719 L 45.015625 -15.699219 L 46 -8.75 L 31.96875 9.988281 L 24.699219 13.050781 Z M 28.050781 1.597656 L 25.121094 6.589844 L 22.875 1.253906 L 26.027344 -0.0703125 L 28.273438 5.261719 L 23.640625 1.792969 L 35.296875 -13.777344 L 39.933594 -10.308594 L 34.199219 -9.496094 L 33.859375 -11.90625 L 39.589844 -12.714844 L 35.835938 -8.3125 L 18.214844 -23.332031 L 21.96875 -27.738281 L 26.597656 -24.257812 L 5.410156 3.90625 L 0.785156 0.425781 L 3.867188 -4.476562 L 11.472656 0.308594 L 8.390625 5.207031 L 3.941406 1.503906 L 12.445312 -8.703125 L 21.535156 -2.425781 L 19.546875 11.226562 L 13.816406 10.394531 L 16.023438 5.042969 L 22.511719 7.714844 L 20.304688 13.066406 L 17.722656 7.886719 L 19.226562 7.136719 L 21.804688 12.320312 L 16.121094 11.226562 L 18.992188 -3.714844 Z M 18.902344 -7.390625 L 24.878906 -15.261719 L 29.488281 -11.761719 L 25.574219 -7.496094 L 21.265625 -11.457031 L 25.183594 -15.71875 L 29.738281 -12.144531 L 23.011719 -3.570312 L 18.457031 -7.144531 L 21.585938 -12.015625 L 26.648438 -8.761719 L 23.515625 -3.890625 Z M 24.886719 3.875 L 9.976562 -5.714844 L 24.488281 -24.214844 L 37.289062 -12.457031 L 28.125 -0.390625 Z M 24.886719 3.875 "/></g></g><g style="fill:#b82200;fill-opacity:1;"><g transform="translate(109.626773, 278.432865)"><path style="stroke:none" d="M 42.097656 -14.730469 L 26.910156 19 L 8.015625 10.449219 L 14.847656 -4.84375 L 20.136719 -2.480469 L 17.980469 2.890625 L 11.457031 0.277344 L 13.613281 -5.097656 L 18.660156 -2.257812 L 10.988281 11.375 L -7.222656 3.164062 L 11.722656 -32.65625 L 18.269531 -35.6875 L 41.332031 -25.917969 L 42.800781 -16.289062 Z M 31.539062 -19.484375 L 36.820312 -17.105469 L 31.097656 -16.234375 L 30.375 -20.972656 L 36.097656 -21.847656 L 33.839844 -16.515625 L 16.113281 -24.027344 L 18.371094 -29.355469 L 20.804688 -24.105469 L 18.363281 -22.972656 L 15.929688 -28.222656 L 21.046875 -25.519531 L 5.894531 3.125 L 0.777344 0.417969 L 3.15625 -4.859375 L 10.917969 -1.359375 L 8.539062 3.917969 L 3.496094 1.078125 L 11.058594 -12.359375 L 27.875 -5.613281 L 20.9375 9.910156 L 15.652344 7.550781 L 18.039062 2.277344 L 26.398438 6.058594 L 24.011719 11.335938 L 18.734375 8.957031 Z M 17.6875 -10.910156 L 21.261719 -18.929688 L 26.550781 -16.574219 L 24.503906 -11.15625 L 19.039062 -13.222656 L 21.085938 -18.636719 L 26.164062 -15.859375 L 22.390625 -8.960938 L 17.3125 -11.738281 L 20.148438 -16.785156 L 25.816406 -13.597656 L 22.976562 -8.550781 Z M 25.679688 -0.390625 L 9.488281 -9.496094 L 18.421875 -25.832031 L 34.335938 -19.820312 L 28.265625 -6.195312 Z M 25.679688 -0.390625 "/></g></g><g style="fill:#b82200;fill-opacity:1;"><g transform="translate(137.95002, 291.543505)"><path style="stroke:none" d="M 26.484375 -35.214844 L 42.359375 -32.121094 L 29.800781 12.574219 L 13.035156 9.210938 L 8.414062 -13.167969 L 14.082031 -14.339844 L 19.65625 -12.769531 L 13.84375 7.847656 L -6.320312 5.058594 L 5.125 -40.792969 L 23.535156 -36.34375 L 27.59375 -16.796875 L 21.925781 -15.621094 L 16.308594 -17.015625 L 21.085938 -36.269531 Z M 24.269531 -23.851562 L 25.378906 -29.535156 L 30.996094 -28.140625 L 27.542969 -14.226562 L 16.257812 -14.445312 L 12.945312 -30.398438 L 18.613281 -31.578125 L 17.25 -25.949219 L 7.992188 -28.1875 L 9.351562 -33.816406 L 14.96875 -32.414062 L 6.472656 1.609375 L 0.859375 0.207031 L 1.652344 -5.527344 L 10.433594 -4.3125 L 9.640625 1.421875 L 4.066406 -0.148438 L 8.511719 -15.910156 L 19.753906 -15.511719 L 23.601562 3.117188 L 17.929688 4.289062 L 19.070312 -1.386719 L 26.816406 0.164062 L 25.679688 5.84375 L 20.105469 4.277344 L 29.511719 -29.207031 L 35.085938 -27.640625 L 33.976562 -21.960938 Z M 24.269531 -23.851562 "/></g></g><g style="fill:#b82200;fill-opacity:1;"><g transform="translate(169.375713, 298.64834)"><path style="stroke:none" d="M 14.414062 -23.902344 L 31.898438 -23.203125 L 31.4375 -1.03125 L 27.292969 6.324219 L 2.34375 5.84375 L -4.710938 1.425781 L -3.789062 -34.8125 L 0.515625 -40.714844 L 26.460938 -40.363281 L 32.910156 -34.714844 L 31.175781 -16.449219 L 12.425781 -17.058594 L 11.457031 -26.804688 L 17.21875 -27.375 L 17.320312 -21.585938 L 11.136719 -21.476562 L 11.039062 -27.265625 L 16.824219 -27.15625 L 16.4375 -7.132812 L 10.652344 -7.242188 L 11.222656 -13.003906 L 17.203125 -12.414062 L 16.632812 -6.652344 L 10.859375 -7.082031 L 11.171875 -11.265625 L 16.945312 -10.835938 L 16.167969 -5.097656 L 8.003906 -6.207031 L 8.585938 -24.136719 Z M 13.949219 -12.332031 L 14.183594 -18.117188 L 19.96875 -17.929688 L 19.746094 -11.050781 L 13.957031 -11.238281 L 14.738281 -16.976562 L 23.125 -15.835938 L 21.964844 -0.308594 L 4.757812 -2.007812 L 5.359375 -32.957031 L 22.453125 -33.253906 L 23.445312 -23.253906 L 17.683594 -22.679688 L 17.875 -28.46875 L 26.117188 -28.199219 L 25.929688 -22.414062 L 20.164062 -22.960938 L 21.105469 -32.859375 L 26.867188 -32.3125 L 23.054688 -27.957031 L 20.4375 -30.246094 L 24.25 -34.601562 L 24.171875 -28.816406 L 3.351562 -29.09375 L 3.429688 -34.882812 L 8.105469 -31.472656 L 6.628906 -29.445312 L 1.953125 -32.859375 L 7.738281 -32.710938 L 6.945312 -1.582031 L 1.160156 -1.726562 L 4.234375 -6.632812 L 7.128906 -4.816406 L 4.058594 0.0898438 L 4.167969 -5.699219 L 24.058594 -5.316406 L 23.949219 0.472656 L 18.902344 -2.371094 L 20.636719 -5.445312 L 25.679688 -2.605469 L 19.894531 -2.726562 L 20.207031 -17.765625 L 25.992188 -17.644531 L 25.761719 -11.859375 Z M 13.949219 -12.332031 "/></g></g><g style="fill:#b82200;fill-opacity:1;"><g transform="translate(199.517841, 299.141785)"><path style="stroke:none" d="M 25.933594 -12.429688 L 28.921875 1.3125 L -3.980469 6.382812 L -11.144531 -40.121094 L 21.042969 -44.03125 L 23.382812 -24.632812 L 6.546875 -22.242188 L 5.734375 -27.972656 L 11.453125 -28.851562 L 12.125 -24.492188 L 6.402344 -23.613281 L 5.867188 -29.378906 L 18.601562 -30.558594 L 21.535156 -11.511719 L 8.066406 -10.257812 L 7.527344 -16.019531 L 13.257812 -16.859375 L 14.132812 -10.882812 L 8.40625 -10.042969 L 7.84375 -15.804688 L 24.839844 -17.460938 Z M 14.621094 -9.96875 L 20.277344 -11.199219 L 20.839844 -5.4375 L 3.476562 -3.742188 L 0.917969 -21.21875 L 14.339844 -22.46875 L 14.875 -16.707031 L 9.15625 -15.824219 L 7.984375 -23.410156 L 13.707031 -24.292969 L 14.242188 -18.527344 L 1.511719 -17.34375 L -0.878906 -32.878906 L 16.140625 -35.296875 L 16.957031 -29.566406 L 11.207031 -28.875 L 10.242188 -36.890625 L 15.988281 -37.585938 L 16.6875 -31.835938 L -3.816406 -29.347656 L -4.511719 -35.097656 L 1.207031 -35.976562 L 6.582031 -1.101562 L 0.859375 -0.222656 L -0.0234375 -5.941406 L 21.078125 -9.191406 L 21.957031 -3.472656 L 16.300781 -2.242188 Z M 14.621094 -9.96875 "/></g></g><g style="fill:#b82200;fill-opacity:1;"><g transform="translate(225.063654, 294.66666)"><path style="stroke:none" d=""/></g></g><g style="fill:#b82200;fill-opacity:1;"><g transform="translate(240.754382, 290.279418)"><path style="stroke:none" d="M 8.761719 -22.574219 L 21.300781 -27.457031 L 27.574219 -15.175781 L 27.289062 -6.605469 L 4.863281 4.164062 L -3.390625 3.738281 L -18.796875 -28.292969 L -18.917969 -36.542969 L 5.734375 -47.808594 L 13.914062 -45.433594 L 20.464844 -28.871094 L 3.511719 -20.863281 L -2.066406 -29.191406 L 2.742188 -32.414062 L 4.988281 -27.078125 L -0.710938 -24.679688 L -2.957031 -30.015625 L 2.234375 -32.582031 L 11.933594 -12.972656 L 6.746094 -10.402344 L 4.671875 -15.808594 L 10.164062 -17.914062 L 12.238281 -12.511719 L 6.683594 -10.875 L 3.808594 -20.644531 Z M 12.964844 -11.785156 L 10.863281 -17.179688 L 16.417969 -18.8125 L 19.300781 -9.019531 L 3.894531 -3.109375 L -10.875 -32.964844 L 4.894531 -39.601562 L 10.355469 -31.453125 L 5.546875 -28.226562 L 3.074219 -33.460938 L 10.613281 -37.023438 L 13.085938 -31.789062 L 7.703125 -29.660156 L 4.191406 -38.539062 L 9.574219 -40.667969 L 7.960938 -35.105469 L 4.570312 -36.089844 L 6.183594 -41.648438 L 8.589844 -36.386719 L -10.667969 -27.582031 L -13.074219 -32.847656 L -7.285156 -32.933594 L -7.238281 -29.734375 L -13.027344 -29.652344 L -7.808594 -32.160156 L 5.554688 -4.375 L 0.339844 -1.867188 L 0.636719 -7.648438 L 3.988281 -7.472656 L 3.6875 -1.691406 L 1.179688 -6.910156 L 19.113281 -15.523438 L 21.621094 -10.308594 L 15.832031 -10.5 L 15.953125 -14.070312 L 21.738281 -13.875 L 16.582031 -11.242188 L 13.371094 -17.527344 L 18.527344 -20.164062 L 20.628906 -14.769531 Z M 12.964844 -11.785156 "/></g></g><g style="fill:#b82200;fill-opacity:1;"><g transform="translate(268.275547, 276.899193)"><path style="stroke:none" d="M 6.539062 -44.117188 L 29.335938 -14.984375 L 12.976562 -2.238281 L 2.621094 -15.398438 L 7.167969 -18.976562 L 10.921875 -14.570312 L 5.574219 -10.015625 L 1.820312 -14.421875 L 6.679688 -17.566406 L 15.179688 -4.4375 L -0.558594 7.863281 L -23.457031 -25.566406 L -23.097656 -32.769531 L -3.71875 -48.644531 L 5.484375 -45.464844 Z M -2.578125 -36.984375 L 1.980469 -40.550781 L 0.0898438 -35.078125 L -4.441406 -36.644531 L -2.554688 -42.117188 L 1.117188 -37.636719 L -13.777344 -25.441406 L -17.445312 -29.917969 L -11.660156 -29.628906 L -11.796875 -26.9375 L -17.578125 -27.226562 L -12.800781 -30.5 L 5.507812 -3.765625 L 0.734375 -0.492188 L -2.832031 -5.054688 L 3.875 -10.296875 L 7.441406 -5.738281 L 2.582031 -2.589844 L -5.800781 -15.539062 L 7.996094 -27.289062 L 18.511719 -13.925781 L 13.964844 -10.347656 L 10.40625 -14.914062 L 17.644531 -20.550781 L 21.203125 -15.984375 L 16.640625 -12.417969 Z M -1.429688 -20.734375 L -6.867188 -27.625 L -2.324219 -31.210938 L 1.519531 -26.882812 L -2.851562 -23.003906 L -6.691406 -27.335938 L -1.871094 -30.539062 L 2.480469 -23.988281 L -2.339844 -20.785156 L -5.488281 -25.644531 L -0.03125 -29.175781 L 3.113281 -24.320312 Z M 11.59375 -22.914062 L -3.992188 -12.816406 L -14.300781 -28.320312 L -1.578125 -39.613281 L 7.660156 -27.902344 Z M 11.59375 -22.914062 "/></g></g><g style="fill:#b82200;fill-opacity:1;"><g transform="translate(292.925922, 257.925763)"><path style="stroke:none" d="M -30.015625 -27.921875 L -9.496094 -50.957031 L 4.78125 -37.007812 L -2.996094 -27.464844 L -7.480469 -31.121094 L -3.46875 -35.292969 L 18.605469 -14.074219 L 6.339844 2.664062 L -18.03125 -19.417969 L -14.144531 -23.707031 L -10.011719 -19.652344 L -19.019531 -10.46875 L -33.886719 -23.578125 Z M -21.371094 -20.222656 L -25.695312 -24.070312 L -21.867188 -28.414062 L -15.480469 -22.785156 L -19.308594 -18.441406 L -23.441406 -22.496094 L -14.382812 -31.734375 L 9.355469 -10.230469 L 5.46875 -5.9375 L 0.796875 -9.359375 L 6.269531 -16.832031 L 10.941406 -13.410156 L 6.929688 -9.234375 L -15.339844 -30.644531 L -7.535156 -40.21875 L -3.046875 -36.5625 L -7.09375 -32.421875 L -13.25 -38.441406 L -9.207031 -42.582031 L -4.882812 -38.730469 Z M -21.371094 -20.222656 "/></g></g><g style="fill:#ffffff;fill-opacity:1;"><g transform="translate(64.775999, 238.105973)"><path style="stroke:none" d="M 42.109375 -5.78125 L 41.796875 -2.75 L 19.34375 16.859375 L 15.90625 17.71875 L 2.640625 3.03125 L 1.984375 -0.28125 L 25.171875 -21.265625 L 27.78125 -21.671875 Z M 27.5625 -10.984375 L 12.515625 2.78125 L 16.203125 7.484375 L 31.359375 -5.90625 Z M 27.5625 -10.984375 "/></g></g><g style="fill:#ffffff;fill-opacity:1;"><g transform="translate(85.195364, 260.469115)"><path style="stroke:none" d="M 25.140625 6.59375 L 23.140625 5.421875 L 21.8125 12.3125 L 20.296875 13.0625 L 13.828125 10.390625 L 15.28125 0.296875 L 13.5 -0.921875 L 8.390625 5.21875 L 0.78125 0.4375 L 21.96875 -27.734375 L 39.59375 -12.71875 L 39.9375 -10.3125 L 28.28125 5.265625 Z M 23.515625 -3.890625 L 29.5 -11.75 L 25.1875 -15.71875 L 18.46875 -7.15625 Z M 23.515625 -3.890625 "/></g></g><g style="fill:#ffffff;fill-opacity:1;"><g transform="translate(109.626773, 278.432865)"><path style="stroke:none" d="M 36.828125 -17.125 L 24.015625 11.328125 L 15.640625 7.546875 L 20.140625 -2.46875 L 13.609375 -5.09375 L 8.53125 3.921875 L 0.78125 0.421875 L 15.921875 -28.21875 L 18.375 -29.359375 L 36.109375 -21.859375 Z M 22.984375 -8.546875 L 26.546875 -16.578125 L 21.078125 -18.640625 L 17.3125 -11.75 Z M 22.984375 -8.546875 "/></g></g><g style="fill:#ffffff;fill-opacity:1;"><g transform="translate(137.95002, 291.543505)"><path style="stroke:none" d="M 25.375 -29.53125 L 35.09375 -27.640625 L 25.671875 5.84375 L 17.9375 4.28125 L 14.09375 -14.34375 L 9.640625 1.4375 L 0.84375 0.203125 L 9.34375 -33.8125 L 18.609375 -31.578125 L 21.921875 -15.625 Z M 25.375 -29.53125 "/></g></g><g style="fill:#ffffff;fill-opacity:1;"><g transform="translate(169.375713, 298.64834)"><path style="stroke:none" d="M 14.1875 -18.109375 L 25.984375 -17.640625 L 25.671875 -2.609375 L 23.953125 0.46875 L 4.0625 0.078125 L 1.171875 -1.734375 L 1.953125 -32.859375 L 3.4375 -34.890625 L 24.25 -34.609375 L 26.859375 -32.3125 L 25.921875 -22.421875 L 17.671875 -22.6875 L 17.21875 -27.375 L 11.03125 -27.265625 L 10.65625 -7.25 L 16.625 -6.65625 L 16.9375 -10.828125 L 13.953125 -11.25 Z M 14.1875 -18.109375 "/></g></g><g style="fill:#ffffff;fill-opacity:1;"><g transform="translate(199.517841, 299.141785)"><path style="stroke:none" d="M 20.28125 -11.203125 L 21.953125 -3.484375 L 0.84375 -0.234375 L -4.53125 -35.109375 L 16 -37.59375 L 16.953125 -29.5625 L 5.734375 -27.984375 L 6.40625 -23.609375 L 13.703125 -24.296875 L 14.875 -16.703125 L 7.53125 -16.015625 L 8.421875 -10.046875 Z M 20.28125 -11.203125 "/></g></g><g style="fill:#ffffff;fill-opacity:1;"><g transform="translate(225.063654, 294.66666)"><path style="stroke:none" d=""/></g></g><g style="fill:#ffffff;fill-opacity:1;"><g transform="translate(240.754382, 290.279418)"><path style="stroke:none" d="M 10.859375 -17.171875 L 18.53125 -20.171875 L 21.734375 -13.875 L 21.609375 -10.3125 L 3.6875 -1.6875 L 0.34375 -1.875 L -13.03125 -29.65625 L -13.078125 -32.84375 L 6.1875 -41.640625 L 9.578125 -40.671875 L 13.078125 -31.78125 L 5.546875 -28.234375 L 2.75 -32.421875 L -2.953125 -30.015625 L 6.75 -10.40625 L 12.21875 -12.515625 Z M 10.859375 -17.171875 "/></g></g><g style="fill:#ffffff;fill-opacity:1;"><g transform="translate(268.275547, 276.899193)"><path style="stroke:none" d="M 1.96875 -40.546875 L 21.1875 -15.984375 L 13.96875 -10.34375 L 7.15625 -18.96875 L 1.8125 -14.40625 L 7.4375 -5.71875 L 0.734375 -0.5 L -17.578125 -27.21875 L -17.453125 -29.921875 L -2.546875 -42.125 Z M 3.125 -24.3125 L -2.328125 -31.203125 L -6.6875 -27.328125 L -2.328125 -20.796875 Z M 3.125 -24.3125 "/></g></g><g style="fill:#ffffff;fill-opacity:1;"><g transform="translate(292.925922, 257.925763)"><path style="stroke:none" d="M -25.703125 -24.078125 L -9.203125 -42.59375 L -3.046875 -36.5625 L -7.484375 -31.125 L 10.9375 -13.421875 L 5.46875 -5.953125 L -14.140625 -23.703125 L -19.3125 -18.4375 Z M -25.703125 -24.078125 "/></g></g></g></svg>